<?xml version="1.0" encoding="utf-8"?>
<!-- Generator: Adobe Illustrator 16.0.0, SVG Export Plug-In . SVG Version: 6.00 Build 0)  -->
<!DOCTYPE svg PUBLIC "-//W3C//DTD SVG 1.1//EN" "http://www.w3.org/Graphics/SVG/1.1/DTD/svg11.dtd">
<svg version="1.1" id="Layer_1" xmlns="http://www.w3.org/2000/svg" xmlns:xlink="http://www.w3.org/1999/xlink" x="0px" y="0px"
	 width="116.458px" height="78.686px" viewBox="0 0 116.458 78.686" enable-background="new 0 0 116.458 78.686"
	 xml:space="preserve">
<g>
	<g>
		<g>
			<path fill="#B02B33" d="M90.512,21.406l1.007,5.607l0.219-5.548c-0.106,0.016-0.212,0.023-0.319,0.03
				C91.107,21.505,90.803,21.472,90.512,21.406z"/>
		</g>
		<g>
			<path fill="#B02B33" d="M114.958,58.992c-2.066-8.832-2.074-8.055-4.187-16.846c-0.168-0.702-7.912-5.95-8.082-6.653
				c-0.114-0.476,4.312-7.009,4.199-7.483c-1.968-8.092-3.013-15.152-5.257-23.196c-0.526-1.898-2.209-3.158-4.174-3.158h-4.932
				L92.01,14.607c1.529,0.322,2.701,1.646,2.765,3.273c0.069,1.814-1.267,3.354-3.034,3.583l-0.22,5.547l-1.007-5.605
				c-1.498-0.344-2.643-1.654-2.698-3.267c-0.048-1.263,0.587-2.392,1.569-3.038L86.976,1.656H81.98
				c-1.862,0-3.458,1.119-4.085,2.877l-1.02,2.858l3.164,35.777L87.47,66.56c1.985,6.241,7.608,10.458,13.813,10.467
				c0.616,0.001-6.853-28.219-6.227-28.305c0.615-0.083,9.322,27.462,9.941,27.296C112.558,73.939,116.743,66.632,114.958,58.992z
				 M83.934,29.559c-1.919,0.07-3.54-1.437-3.609-3.353c-0.074-1.919,1.434-3.539,3.352-3.611c1.918-0.07,3.541,1.434,3.611,3.351
				C87.358,27.865,85.852,29.487,83.934,29.559z M91.995,37.049c-1.92,0.069-3.537-1.435-3.605-3.359
				c-0.076-1.923,1.428-3.54,3.345-3.608c1.929-0.076,3.546,1.429,3.616,3.351C95.42,35.355,93.922,36.975,91.995,37.049z
				 M99.483,28.979c-1.917,0.075-3.542-1.433-3.609-3.352c-0.071-1.915,1.434-3.539,3.353-3.609
				c1.919-0.072,3.542,1.436,3.614,3.353C102.909,27.287,101.401,28.912,99.483,28.979z"/>
		</g>
		<g>
			<path fill="#B02B33" d="M37.633,4.536c-0.629-1.76-2.217-2.879-4.088-2.879H18.067c-1.966,0-3.647,1.259-4.175,3.158
				c-1.036,3.711-2.028,7.43-2.994,11.154c-0.117,0.444,3.402-0.113,3.289,0.333C10.626,30.137,4.838,45.044,1.577,58.996
				c-1.787,7.636,1.392,15.448,8.948,17.53c7.564,2.08,15.158-2.486,17.533-9.961l7.43-23.394l3.162-35.776L37.633,4.536z
				 M34.988,26.96c0,0.97-0.795,1.763-1.767,1.763h-3.228c-0.972,0-1.764,0.792-1.764,1.767v3.229c0,0.966-0.794,1.767-1.763,1.767
				h-2.904c-0.971,0-1.764-0.8-1.764-1.767V30.49c0-0.975-0.794-1.767-1.767-1.767h-3.227c-0.973,0-1.766-0.793-1.766-1.763v-2.908
				c0-0.97,0.793-1.765,1.766-1.765h3.227c0.973,0,1.767-0.79,1.767-1.767v-3.224c0-0.971,0.793-1.763,1.764-1.763h2.904
				c0.969,0,1.763,0.792,1.763,1.763v3.225c0,0.978,0.792,1.767,1.764,1.767h3.228c0.972,0,1.767,0.796,1.767,1.766V26.96z"/>
		</g>
		<g>
			<path fill="#B02B33" d="M75.191,7.394H63.613H51.916H40.09l-0.793,9.092l27.344,0.174l-0.018,1.258l-27.452,0.011l-1.18,13.544
				l28.776,0.17l-0.023,1.305l-28.89,0.131l-0.882,10.096h14.939H63.61h14.773L75.191,7.394z M55.576,23.865l-4.309,4.31
				c-0.667,0.669-1.758,0.667-2.43-0.002c-0.666-0.669-0.67-1.756,0-2.425l4.31-4.311c0.667-0.664,1.758-0.664,2.427,0
				C56.242,22.106,56.242,23.201,55.576,23.865z M65.34,23.865l-4.307,4.311c-0.666,0.664-1.756,0.664-2.43-0.007
				c-0.667-0.667-0.667-1.756,0-2.424l4.309-4.31c0.666-0.664,1.756-0.664,2.428,0C66.01,22.107,66.01,23.201,65.34,23.865z"/>
		</g>
	</g>
</g>
</svg>
