<?xml version="1.0" encoding="utf-8"?>
<!-- Generator: Adobe Illustrator 16.0.0, SVG Export Plug-In . SVG Version: 6.00 Build 0)  -->
<!DOCTYPE svg PUBLIC "-//W3C//DTD SVG 1.1//EN" "http://www.w3.org/Graphics/SVG/1.1/DTD/svg11.dtd">
<svg version="1.1" id="Layer_1" xmlns="http://www.w3.org/2000/svg" xmlns:xlink="http://www.w3.org/1999/xlink" x="0px" y="0px"
	 width="474.5px" height="78.686px" viewBox="0 0 474.5 78.686" enable-background="new 0 0 474.5 78.686" xml:space="preserve">
<g>
	<g>
		<g>
			<path fill="#B02B33" d="M91.604,21.406l1.007,5.607l0.219-5.548c-0.106,0.016-0.212,0.023-0.32,0.03
				C92.198,21.505,91.895,21.472,91.604,21.406z"/>
		</g>
		<g>
			<path fill="#B02B33" d="M116.048,58.992c-2.065-8.832-2.072-8.055-4.186-16.846c-0.168-0.702-7.912-5.95-8.082-6.653
				c-0.115-0.476,4.312-7.009,4.199-7.483c-1.968-8.092-3.013-15.152-5.256-23.196c-0.527-1.898-2.209-3.158-4.176-3.158h-4.931
				l-0.516,12.951c1.529,0.322,2.702,1.646,2.765,3.273c0.069,1.814-1.266,3.354-3.035,3.583l-0.219,5.547l-1.007-5.605
				c-1.498-0.344-2.643-1.654-2.698-3.267c-0.048-1.263,0.587-2.392,1.569-3.038L88.068,1.656h-4.996
				c-1.863,0-3.458,1.119-4.085,2.877l-1.02,2.858l3.164,35.777l7.431,23.392c1.984,6.241,7.607,10.458,13.813,10.467
				c0.616,0.001-6.853-28.219-6.227-28.305c0.616-0.083,9.323,27.462,9.94,27.296C113.65,73.939,117.833,66.632,116.048,58.992z
				 M85.026,29.559c-1.919,0.07-3.54-1.437-3.609-3.353c-0.074-1.919,1.435-3.539,3.353-3.611c1.917-0.07,3.541,1.434,3.609,3.351
				C88.449,27.865,86.944,29.487,85.026,29.559z M93.085,37.049c-1.92,0.069-3.536-1.435-3.604-3.359
				c-0.076-1.923,1.428-3.54,3.345-3.608c1.928-0.076,3.546,1.429,3.616,3.351C96.512,35.355,95.013,36.975,93.085,37.049z
				 M100.574,28.979c-1.917,0.075-3.542-1.433-3.61-3.352c-0.07-1.915,1.435-3.539,3.354-3.609c1.919-0.072,3.542,1.436,3.614,3.353
				C104,27.287,102.492,28.912,100.574,28.979z"/>
		</g>
		<g>
			<path fill="#B02B33" d="M38.724,4.536c-0.629-1.76-2.217-2.879-4.087-2.879H19.158c-1.966,0-3.646,1.259-4.175,3.158
				c-1.036,3.711-2.028,7.43-2.994,11.154c-0.117,0.444,3.402-0.113,3.289,0.333C11.717,30.137,5.93,45.044,2.667,58.996
				c-1.787,7.636,1.393,15.448,8.948,17.53c7.564,2.08,15.158-2.486,17.533-9.961l7.43-23.394L39.74,7.396L38.724,4.536z
				 M36.08,26.96c0,0.97-0.795,1.763-1.767,1.763h-3.229c-0.971,0-1.763,0.792-1.763,1.767v3.229c0,0.966-0.794,1.767-1.763,1.767
				h-2.904c-0.971,0-1.764-0.8-1.764-1.767V30.49c0-0.975-0.794-1.767-1.768-1.767h-3.227c-0.974,0-1.767-0.793-1.767-1.763v-2.908
				c0-0.97,0.793-1.765,1.767-1.765h3.227c0.974,0,1.768-0.79,1.768-1.767v-3.224c0-0.971,0.793-1.763,1.764-1.763h2.904
				c0.969,0,1.763,0.792,1.763,1.763v3.225c0,0.978,0.792,1.767,1.763,1.767h3.229c0.972,0,1.767,0.796,1.767,1.766V26.96z"/>
		</g>
		<g>
			<path fill="#B02B33" d="M76.281,7.394H64.704H53.007H41.182l-0.792,9.092l27.343,0.174l-0.018,1.258l-27.45,0.011l-1.181,13.544
				l28.775,0.17l-0.024,1.305l-28.889,0.131l-0.882,10.096h14.939h11.697h14.774L76.281,7.394z M56.667,23.865l-4.308,4.31
				c-0.667,0.669-1.758,0.667-2.429-0.002c-0.667-0.669-0.671-1.756,0-2.425l4.309-4.311c0.667-0.664,1.758-0.664,2.427,0
				C57.334,22.106,57.334,23.201,56.667,23.865z M66.432,23.865l-4.308,4.311c-0.667,0.664-1.756,0.664-2.43-0.007
				c-0.667-0.667-0.667-1.756,0-2.424l4.308-4.31c0.666-0.664,1.756-0.664,2.429,0C67.102,22.107,67.102,23.201,66.432,23.865z"/>
		</g>
	</g>
	<g enable-background="new    ">
		<path d="M161.648,20.566h-3.839v-4.388h12.172v4.388h-3.29v25.223l-5.703,6.029H150.46l-5.702-6.029V36.14h4.387v7.401
			l3.455,3.563h6.195l2.852-2.902L161.648,20.566L161.648,20.566z"/>
	</g>
	<g enable-background="new    ">
		<path d="M199.589,29.121h-4.551v-4.825l-3.289-3.4h-8.389l-2.852,2.906v5.373l2.688,2.743h11.405l5.538,5.813v8.059l-5.703,6.031
			h-13.818l-5.702-6.031v-6.908h4.552v4.824l3.345,3.399h9.485l2.797-2.902V39.32l-2.632-2.686h-11.403l-5.594-5.869v-8.553
			l5.703-6.032h12.722l5.701,6.032L199.589,29.121L199.589,29.121z"/>
	</g>
	<g enable-background="new    ">
		<path fill="#B02B33" d="M220.48,10.698v36.735h8.226v4.388h-21.494v-4.388h8.225V16.016l-8.938,4.441l-2.139-4.279l11.076-5.481
			L220.48,10.698L220.48,10.698L220.48,10.698z"/>
		<path fill="#B02B33" d="M241.973,33.563v-4.388h8.664l2.632-2.687v-8.17l-2.853-2.906h-8.389l-3.29,3.399v4.825h-4.551v-6.908
			l5.703-6.031h12.721l5.702,6.031v11.351l-2.796,2.903l3.837,4.004v10.802l-5.703,6.031h-13.817l-5.703-6.031v-6.907h4.553v4.824
			l3.345,3.399h9.484l2.797-2.902v-7.624l-2.96-3.015L241.973,33.563L241.973,33.563L241.973,33.563z"/>
	</g>
	<g enable-background="new    ">
		<path fill="#B02B33" d="M294.392,51.82h-11.624v-4.387h2.796l-8.062-11.241h-5.428v11.241h3.838v4.387h-12.721v-4.387h3.837
			V20.566h-3.837v-4.388h12.721v4.388h-3.838v11.24h4.824l8.115-11.24h-2.797v-4.388h11.624v4.388h-3.181l-9.374,13.049
			l9.924,13.818h3.182V51.82L294.392,51.82z"/>
	</g>
	<g enable-background="new    ">
		<path d="M321.261,35.098h-7.567v-4.387h11.953v15.077l-5.702,6.029h-14.366l-5.702-6.029V16.728l5.702-6.031h14.366l5.702,6.031
			v6.909h-4.389v-4.661l-3.454-3.564h-10.033l-2.852,2.905v25.88l2.797,2.904h10.033l3.512-3.563V35.098z"/>
		<path d="M351.856,51.82v-4.387h3.619l-2.357-6.801H339.41l-2.356,6.801h3.674v4.387h-11.626v-4.387h2.905l9.267-26.867h-2.304
			v-4.388h14.641v4.388h-2.357l9.267,26.867h2.961v4.387H351.856z M346.263,20.73l-5.373,15.519h10.747L346.263,20.73z"/>
		<path d="M376.365,47.434h3.839v4.387h-12.723v-4.387h3.839V20.566h-3.839v-4.388h11.187l10.362,25.937l10.363-25.937h11.186v4.388
			h-3.838v26.867h3.838v4.387h-12.721v-4.387h3.838V22.376l-10.253,25.057h-4.825l-10.253-25.057V47.434L376.365,47.434z"/>
	</g>
	<g enable-background="new    ">
		<path d="M415.182,16.18h26.103v10.747h-4.388v-6.36h-12.831v11.24h12.831v4.386h-12.831v11.241h12.831v-6.358h4.388v10.746
			h-26.103v-4.388h3.839V20.566h-3.839V16.18L415.182,16.18z"/>
		<path d="M471.769,29.121h-4.55v-4.825l-3.29-3.4h-8.39l-2.852,2.906v5.373l2.688,2.743h11.405l5.537,5.813v8.059l-5.702,6.031
			h-13.818l-5.702-6.031v-6.908h4.552v4.824l3.345,3.399h9.484l2.797-2.902V39.32l-2.631-2.686h-11.405l-5.593-5.869v-8.553
			l5.702-6.032h12.721l5.702,6.032V29.121L471.769,29.121z"/>
	</g>
</g>
</svg>
