<?xml version="1.0" encoding="utf-8"?>
<!-- Generator: Adobe Illustrator 16.0.0, SVG Export Plug-In . SVG Version: 6.00 Build 0)  -->
<!DOCTYPE svg PUBLIC "-//W3C//DTD SVG 1.1//EN" "http://www.w3.org/Graphics/SVG/1.1/DTD/svg11.dtd">
<svg version="1.1" id="Layer_1" xmlns="http://www.w3.org/2000/svg" xmlns:xlink="http://www.w3.org/1999/xlink" x="0px" y="0px"
	 width="506px" height="198px" viewBox="0 0 506 198" enable-background="new 0 0 506 198" xml:space="preserve">
<g>
	<g>
		<g>
			<path fill="#B02B33" d="M138.208,96.646l0.817,4.551l0.178-4.503c-0.087,0.013-0.172,0.02-0.26,0.024
				C138.69,96.726,138.444,96.699,138.208,96.646z"/>
		</g>
		<g>
			<path fill="#B02B33" d="M158.051,127.157c-1.677-7.171-1.683-6.539-3.398-13.675c-0.137-0.57-6.423-4.83-6.56-5.401
				c-0.094-0.386,3.5-5.688,3.408-6.074c-1.598-6.569-2.446-12.3-4.267-18.83c-0.428-1.542-1.793-2.563-3.389-2.563h-4.002
				l-0.419,10.513c1.242,0.261,2.193,1.335,2.244,2.657c0.055,1.474-1.028,2.723-2.464,2.909l-0.178,4.503l-0.817-4.551
				c-1.216-0.279-2.145-1.343-2.191-2.652c-0.039-1.025,0.477-1.941,1.274-2.466l-1.955-10.913h-4.056
				c-1.513,0-2.808,0.908-3.316,2.336l-0.828,2.32l2.569,29.042l6.031,18.989c1.611,5.066,6.176,8.489,11.214,8.496
				c0.5,0.001-5.563-22.907-5.055-22.976c0.5-0.068,7.569,22.293,8.071,22.158C156.103,139.29,159.5,133.357,158.051,127.157z
				 M132.868,103.264c-1.558,0.057-2.873-1.166-2.93-2.722c-0.059-1.558,1.164-2.873,2.721-2.931
				c1.556-0.057,2.874,1.164,2.931,2.72C135.647,101.889,134.425,103.205,132.868,103.264z M139.411,109.344
				c-1.559,0.057-2.87-1.164-2.927-2.727c-0.061-1.561,1.159-2.873,2.715-2.93c1.565-0.061,2.879,1.16,2.936,2.72
				C142.192,107.969,140.975,109.283,139.411,109.344z M145.49,102.793c-1.557,0.061-2.875-1.163-2.931-2.721
				c-0.057-1.554,1.164-2.873,2.722-2.93c1.558-0.058,2.875,1.165,2.934,2.721C148.271,101.419,147.047,102.738,145.49,102.793z"/>
		</g>
		<g>
			<path fill="#B02B33" d="M95.282,82.951c-0.511-1.428-1.799-2.336-3.317-2.336H79.4c-1.596,0-2.961,1.021-3.389,2.563
				c-0.84,3.013-1.646,6.031-2.43,9.055c-0.095,0.36,2.762-0.092,2.67,0.27c-2.891,11.229-7.589,23.331-10.238,34.656
				c-1.45,6.199,1.13,12.541,7.264,14.232c6.141,1.688,12.305-2.02,14.233-8.086l6.031-18.99l2.566-29.042L95.282,82.951z
				 M93.136,101.154c0,0.787-0.645,1.431-1.434,1.431h-2.62c-0.788,0-1.431,0.644-1.431,1.435v2.621
				c0,0.784-0.644,1.434-1.432,1.434h-2.357c-0.788,0-1.432-0.649-1.432-1.434v-2.621c0-0.791-0.644-1.435-1.434-1.435h-2.619
				c-0.79,0-1.434-0.644-1.434-1.431v-2.36c0-0.787,0.644-1.433,1.434-1.433h2.619c0.79,0,1.434-0.641,1.434-1.434V93.31
				c0-0.788,0.644-1.431,1.432-1.431h2.357c0.788,0,1.432,0.643,1.432,1.431v2.618c0,0.793,0.643,1.434,1.431,1.434h2.62
				c0.789,0,1.434,0.646,1.434,1.433V101.154z"/>
		</g>
		<g>
			<path fill="#B02B33" d="M125.77,85.271h-9.398h-9.495h-9.6l-0.642,7.381l22.196,0.14l-0.014,1.021l-22.283,0.009l-0.958,10.995
				l23.358,0.137l-0.019,1.059l-23.451,0.106l-0.716,8.196h12.128h9.495h11.993L125.77,85.271z M109.848,98.641l-3.497,3.498
				c-0.541,0.543-1.426,0.541-1.971-0.002c-0.542-0.543-0.544-1.426,0-1.969l3.498-3.498c0.541-0.539,1.426-0.539,1.969,0
				C110.389,97.214,110.389,98.102,109.848,98.641z M117.774,98.642l-3.496,3.499c-0.541,0.539-1.426,0.539-1.973-0.006
				c-0.541-0.541-0.541-1.426,0-1.968l3.497-3.498c0.541-0.539,1.426-0.539,1.971,0C118.318,97.215,118.318,98.102,117.774,98.642z"
				/>
		</g>
	</g>
	<g enable-background="new    ">
		<path d="M195.066,95.964h-3.116v-3.562h9.881v3.562h-2.671v20.473l-4.629,4.896h-8.546l-4.629-4.896v-7.832h3.561v6.008
			l2.804,2.893h5.03l2.314-2.357V95.964z"/>
	</g>
	<g enable-background="new    ">
		<path d="M225.866,102.908h-3.694v-3.917l-2.67-2.76h-6.81l-2.314,2.359v4.361l2.181,2.227h9.258l4.495,4.719v6.541l-4.629,4.896
			h-11.216l-4.629-4.896v-5.607h3.694v3.916l2.715,2.76h7.7l2.27-2.357v-3.963l-2.136-2.18h-9.258l-4.54-4.764v-6.943l4.629-4.896
			h10.326l4.629,4.896V102.908z"/>
	</g>
	<g enable-background="new    ">
		<path fill="#B02B33" d="M242.824,87.953v29.821h6.677v3.561h-17.448v-3.561h6.676V92.27l-7.255,3.605l-1.736-3.473l8.991-4.45
			H242.824z"/>
		<path fill="#B02B33" d="M260.271,106.514v-3.563h7.033l2.136-2.18v-6.632l-2.314-2.359h-6.81l-2.671,2.76v3.917h-3.694v-5.608
			l4.629-4.896h10.326l4.629,4.896v9.214l-2.27,2.357l3.115,3.25v8.768l-4.629,4.896h-11.217l-4.629-4.896v-5.607h3.695v3.916
			l2.715,2.76h7.699l2.271-2.357v-6.188l-2.403-2.447H260.271z"/>
	</g>
	<g enable-background="new    ">
		<path fill="#B02B33" d="M302.822,121.334h-9.436v-3.561h2.27l-6.543-9.125h-4.406v9.125h3.115v3.561h-10.326v-3.561h3.115V95.964
			h-3.115v-3.562h10.326v3.562h-3.115v9.124h3.916l6.588-9.124h-2.27v-3.562h9.436v3.562h-2.582l-7.61,10.592l8.056,11.217h2.582
			V121.334z"/>
	</g>
	<g enable-background="new    ">
		<path d="M324.633,107.76h-6.143v-3.561h9.703v12.238l-4.629,4.896h-11.662l-4.629-4.896V92.848l4.629-4.896h11.662l4.629,4.896
			v5.608h-3.561v-3.783l-2.805-2.894h-8.145l-2.314,2.359v21.009l2.27,2.357h8.145l2.85-2.893V107.76z"/>
		<path d="M349.469,121.334v-3.561h2.938l-1.914-5.52h-11.127l-1.914,5.52h2.982v3.561h-9.437v-3.561h2.359l7.522-21.809h-1.87
			v-3.562h11.884v3.562h-1.914l7.522,21.809h2.403v3.561H349.469z M344.929,96.097l-4.362,12.596h8.725L344.929,96.097z"/>
		<path d="M369.364,117.773h3.116v3.561h-10.327v-3.561h3.116V95.964h-3.116v-3.562h9.08l8.412,21.054l8.412-21.054h9.08v3.562
			h-3.115v21.809h3.115v3.561h-10.326v-3.561h3.116v-20.34l-8.323,20.34h-3.917l-8.323-20.34V117.773z"/>
	</g>
	<g enable-background="new    ">
		<path d="M400.875,92.403h21.188v8.724h-3.561v-5.163h-10.416v9.124h10.416v3.561h-10.416v9.125h10.416v-5.162h3.561v8.723h-21.188
			v-3.561h3.116V95.964h-3.116V92.403z"/>
		<path d="M446.809,102.908h-3.693v-3.917l-2.671-2.76h-6.81l-2.314,2.359v4.361l2.18,2.227h9.259l4.495,4.719v6.541l-4.629,4.896
			h-11.217l-4.629-4.896v-5.607h3.695v3.916l2.715,2.76h7.699l2.271-2.357v-3.963l-2.136-2.18h-9.259l-4.54-4.764v-6.943
			l4.629-4.896h10.326l4.629,4.896V102.908z"/>
	</g>
</g>
</svg>
